<svg xmlns="http://www.w3.org/2000/svg" width="31.855" height="13.052" viewBox="0 0 31.855 13.052">
  <g id="Group_2306" data-name="Group 2306" transform="translate(-749.309 -377.61)" opacity="0.7">
    <text id="AiDE" transform="translate(757.164 387.663)" font-size="10" font-family="Rubik" font-weight="700"><tspan x="0" y="0">AiDE</tspan></text>
    <path id="Path_13389" data-name="Path 13389" d="M204.743,32.2h-.024a.228.228,0,0,0-.2.164l-2.783,6.255a.228.228,0,0,0,.033.239l2.772,3.333a.228.228,0,0,0,.2.112.228.228,0,0,0,.2-.113l2.772-3.333a.228.228,0,0,0,.033-.239l-2.783-6.254a.228.228,0,0,0-.205-.166h-.014Z" transform="translate(547.591 345.414)" fill="#544ff8" fill-rule="evenodd"/>
  </g>
</svg>
