<?xml version="1.0" encoding="utf-8"?>
<!-- Generator: Adobe Illustrator 27.3.1, SVG Export Plug-In . SVG Version: 6.00 Build 0)  -->
<svg version="1.1" id="Layer_1" xmlns="http://www.w3.org/2000/svg" xmlns:xlink="http://www.w3.org/1999/xlink" x="0px" y="0px"
	 viewBox="0 0 544.4 209.9" style="enable-background:new 0 0 544.4 209.9;" xml:space="preserve">
<style type="text/css">
	.st0{fill:#fff;}
	.st1{fill:#fff;}
</style>
<g>
	<g>
		<path class="st0" d="M220.5,89.6c-2.1,1.9-4.5,3.2-7.4,3.8c2.6,0.5,4.6,1.7,6.1,3.5s2.3,4,2.3,6.5c0,0.7-0.1,1.5-0.2,2.3
			c-0.7,4-2.6,7.2-5.8,9.6c-3.2,2.5-7.3,3.7-12.4,3.7H186l8.7-49.4h17c4.3,0,7.6,0.9,9.8,2.6s3.3,4.1,3.3,7.1c0,0.7-0.1,1.6-0.2,2.5
			C223.9,85.1,222.6,87.7,220.5,89.6z M216.6,103.2c0-2.4-0.9-4.3-2.7-5.7c-1.8-1.4-4.3-2.1-7.6-2.1H195l-3.4,19.4H203
			c3.7,0,6.7-0.9,9.1-2.6c2.4-1.7,3.8-4.1,4.3-7.1C216.5,104.5,216.6,103.8,216.6,103.2z M219.5,80.7c0-2.2-0.8-3.9-2.3-5.1
			s-3.9-1.8-7.1-1.8H199l-3.2,17.9h11.4c3.4,0,6.2-0.8,8.2-2.4c2.1-1.6,3.4-3.8,3.9-6.6C219.4,82,219.5,81.3,219.5,80.7z"/>
		<path class="st0" d="M264.1,84.4c2.9,2.8,4.4,6.6,4.4,11.4c0,1.4-0.1,2.9-0.4,4.4c-0.7,3.9-2.1,7.3-4.3,10.3
			c-2.1,2.9-4.8,5.2-8,6.7c-3.2,1.5-6.5,2.3-10.1,2.3c-4.9,0-8.8-1.4-11.8-4.2c-3-2.8-4.5-6.6-4.5-11.5c0-1.4,0.1-2.8,0.4-4.3
			c0.7-3.9,2.1-7.3,4.3-10.3c2.2-2.9,4.8-5.2,8-6.7s6.6-2.3,10.2-2.3C257.3,80.3,261.2,81.7,264.1,84.4z M244.5,86.2
			c-2.3,1.1-4.4,2.8-6.1,5.2c-1.7,2.3-2.9,5.2-3.5,8.5c-0.2,1.5-0.4,2.7-0.4,3.7c0,3.8,1.1,6.7,3.3,8.6c2.2,2,5,2.9,8.4,2.9
			c2.5,0,4.9-0.6,7.3-1.7c2.3-1.1,4.3-2.8,6-5.1c1.7-2.3,2.9-5.1,3.5-8.5c0.2-1.5,0.4-2.7,0.4-3.7c0-3.8-1.1-6.7-3.3-8.7
			c-2.2-2-5-3-8.3-3C249.3,84.6,246.8,85.1,244.5,86.2z"/>
		<path class="st0" d="M287.8,67.2l-9.1,51.9h-5l9.1-51.9H287.8z"/>
		<path class="st0" d="M297.1,107.6c-0.2,0.9-0.3,1.8-0.3,2.7c0,1.6,0.5,2.8,1.4,3.4c0.9,0.7,2.4,1,4.4,1h3.9l-0.8,4.3h-4.6
			c-3.1,0-5.5-0.6-7-1.8c-1.5-1.2-2.3-3.2-2.3-6c0-0.9,0.1-2.1,0.4-3.6l4-22.5h-5.9l0.8-4.3h5.9l1.7-9.7h4.9l-1.7,9.7h10.5l-0.7,4.3
			h-10.6L297.1,107.6z"/>
		<path class="st0" d="M367.7,71.3c3.1,1.6,5.4,3.8,7,6.7c1.6,2.9,2.5,6.2,2.6,10h-14.6c-0.5-2-1.4-3.5-2.9-4.6s-3.3-1.6-5.5-1.6
			c-3,0-5.7,1.1-7.9,3.4c-2.2,2.3-3.7,5.3-4.4,9.1c-0.2,1-0.3,2.1-0.3,3.2c0,2.9,0.7,5.2,2.2,6.8c1.4,1.7,3.5,2.5,6,2.5
			c2.2,0,4.2-0.6,6.1-1.7s3.4-2.7,4.6-4.6h14.5c-2.2,5.8-5.7,10.4-10.5,13.8s-10.4,5.2-16.7,5.2c-4.3,0-7.9-0.8-11-2.5
			c-3.1-1.6-5.4-3.9-7-6.9s-2.4-6.4-2.4-10.3c0-1.9,0.2-3.7,0.5-5.5c0.8-4.9,2.6-9.3,5.3-13.1c2.7-3.8,6-6.8,10.1-8.9
			c4-2.1,8.5-3.2,13.4-3.2C360.9,68.9,364.6,69.7,367.7,71.3z"/>
		<path class="st0" d="M420.9,82.6c2.1,2.2,3.1,5.2,3.1,9.1c0,1.4-0.1,2.9-0.4,4.4l-4,22.8h-13.7l3.7-21.1c0.1-0.7,0.2-1.3,0.2-1.9
			c0-1.7-0.5-3.1-1.4-4c-1-0.9-2.3-1.4-4-1.4c-2,0-3.6,0.6-5,1.8c-1.4,1.2-2.4,2.8-2.9,5l-3.8,21.7h-13.8l9.1-51.9h13.8l-3.4,19.1
			c1.5-2.1,3.5-3.8,5.9-5s5-1.9,7.8-1.9C415.9,79.4,418.8,80.5,420.9,82.6z"/>
		<path class="st0" d="M455.3,81c1.9,1.2,3.2,2.9,3.8,4.9l1.1-6.2H474l-7,39.3h-13.7l1.1-6.2c-1.3,2.1-3.1,3.7-5.3,4.9
			c-2.2,1.2-4.8,1.8-7.6,1.8c-4.3,0-7.6-1.4-10-4.1s-3.6-6.5-3.6-11.4c0-1.7,0.2-3.6,0.6-5.9c0.7-3.9,2-7.2,3.9-10.1
			c1.9-2.8,4.2-5,6.9-6.6c2.7-1.5,5.6-2.3,8.6-2.3C450.9,79.2,453.4,79.8,455.3,81z M445.5,93.4c-1.6,1.4-2.6,3.4-3,5.9
			c-0.1,0.7-0.2,1.4-0.2,2c0,2,0.5,3.5,1.6,4.5c1.1,1.1,2.5,1.6,4.3,1.6c2.1,0,3.9-0.7,5.5-2.2c1.6-1.4,2.6-3.4,3-6
			c0.1-0.7,0.2-1.4,0.2-2c0-1.9-0.5-3.4-1.6-4.5s-2.5-1.6-4.3-1.6C448.9,91.3,447.1,92,445.5,93.4z"/>
		<path class="st0" d="M492.6,103.9c0,0.2-0.1,0.6-0.1,1c0,0.8,0.2,1.4,0.7,1.8s1.2,0.6,2.3,0.6h3.8l-2.2,11.8h-5.6
			c-8.7,0-13.1-3.7-13.1-11.1c0-1.3,0.1-2.7,0.4-4.3l2.2-12.4h-5l2-11.5h5.1l1.7-9.5h13.7l-1.7,9.5h7.1l-2,11.5h-7.1L492.6,103.9z"
			/>
	</g>
	<g>
		<path class="st1" d="M65.4,103.7l49.2-58.6H53.4c-6.9,0-12.5,5.6-12.5,12.5v107.3l23.4-23.4h22.4l9.4-38L65.4,103.7z"/>
		<path class="st1" d="M147.7,45.1L147.7,45.1h-33.1l-9.5,38.8h30.7l-49,57.5h61c6.9,0,12.5-5.6,12.5-12.5V57.6
			C160.2,50.7,154.6,45.1,147.7,45.1z"/>
	</g>
</g>
</svg>
