<svg xmlns="http://www.w3.org/2000/svg" xmlns:xlink="http://www.w3.org/1999/xlink" width="39" height="39" viewBox="0 0 39 39">
  <defs>
    <linearGradient id="linear-gradient" x1="0.5" x2="0.5" y2="1" gradientUnits="objectBoundingBox">
      <stop offset="0" stop-color="#E36730"/>
      <stop offset="1" stop-color="#E36730"/>
    </linearGradient>
  </defs>
  <g id="Group_2299" data-name="Group 2299" transform="translate(-279 -479)">
    <circle id="Ellipse_24" data-name="Ellipse 24" cx="19.5" cy="19.5" r="19.5" transform="translate(279 479)" fill="url(#linear-gradient)"/>
    <path id="Icon_ionic-ios-send" data-name="Icon ionic-ios-send" d="M21.083,4.541,4.715,11.675a.375.375,0,0,0,.013.682l4.428,2.5a.714.714,0,0,0,.816-.08L18.7,7.252c.058-.049.2-.143.25-.089s-.031.192-.08.25L11.318,15.92a.711.711,0,0,0-.071.852l2.894,4.642a.377.377,0,0,0,.678-.009L21.587,5.036A.375.375,0,0,0,21.083,4.541Z" transform="translate(285.498 485.497)" fill="#fff"/>
  </g>
</svg>
